<?xml version="1.0" encoding="UTF-8" standalone="no"?>
<!-- Generator: Adobe Illustrator 22.0.0, SVG Export Plug-In . SVG Version: 6.00 Build 0)  -->

<svg
   version="1.1"
   x="0px"
   y="0px"
   viewBox="0 0 283.5 170.1"
   style="enable-background:new 0 0 283.5 170.1;"
   xml:space="preserve"
   id="svg1298"
   sodipodi:docname="first-org.svg"
   inkscape:version="1.2.2 (b0a8486541, 2022-12-01)"
   xmlns:inkscape="http://www.inkscape.org/namespaces/inkscape"
   xmlns:sodipodi="http://sodipodi.sourceforge.net/DTD/sodipodi-0.dtd"
   xmlns="http://www.w3.org/2000/svg"
   xmlns:svg="http://www.w3.org/2000/svg"><sodipodi:namedview
   id="namedview46"
   pagecolor="#505050"
   bordercolor="#eeeeee"
   borderopacity="1"
   inkscape:showpageshadow="0"
   inkscape:pageopacity="0"
   inkscape:pagecheckerboard="0"
   inkscape:deskcolor="#505050"
   showgrid="false"
   inkscape:zoom="4.6243386"
   inkscape:cx="127.91018"
   inkscape:cy="85.093249"
   inkscape:window-width="1920"
   inkscape:window-height="1048"
   inkscape:window-x="0"
   inkscape:window-y="32"
   inkscape:window-maximized="1"
   inkscape:current-layer="FIRST" /><defs
   id="defs1302">
			
			
		
		
		
	
				
				
				
				
				
				
				
				
				
				
				
				
				
				
				
				
				
				
				
				
				
				
				
				
				
			
			
			
			
			
			
			
			
			
			
		</defs>
<style
   type="text/css"
   id="style1210">
	.st0{opacity:0.6;}
	.st1{fill:none;}
	.st2{opacity:0.8;fill:#000804;}
	.st3{fill-rule:evenodd;clip-rule:evenodd;fill:#00801A;}
	.st4{fill-rule:evenodd;clip-rule:evenodd;fill:#FF8000;}
	.st5{fill:#FF8000;}
</style>


<g
   id="FIRST"
   transform="matrix(0.71709802,0,0,0.71709802,19.576775,32.71436)">
	<rect
   x="-27.299999"
   y="-45.620487"
   class="st0"
   width="395.29404"
   height="237.17642"
   id="rect1006"
   style="fill:none;stroke-width:1.18011" />
	<path
   id="polygon1008"
   style="clip-rule:evenodd;fill:#00400d;fill-rule:evenodd;fill-opacity:1"
   class="st1"
   d="M 271.90127,48.699561 H 293.301 l -7.40016,46.201298 h -21.39973 z m -53.60145,0 h 27.29915 c 3.6,2.699997 6.30209,5.300519 8.00209,8.500516 2,3.499996 2.59956,7.499595 1.69956,13.299589 -2.2,14.199986 -14.40106,25.501548 -29.30104,25.501548 -5.5,0 -10.89836,-1.102241 -15.59835,-3.102239 l 3.89754,-23.799265 c 2.3,4.299995 6.70197,8.500516 12.20196,8.500516 2.9,0 6.60056,-1.801403 7.10056,-5.101399 0.3,-1.699999 -0.20231,-3.099872 -1.0023,-4.199871 -0.7,-1.099999 -1.79875,-2.098741 -2.99874,-2.99874 -3.7,-3.099997 -6.89895,-6.098926 -8.99895,-9.698922 -1.2,-2.199998 -2.00148,-4.301736 -2.30148,-6.901733 z m -63.79881,0 h 21.59855 9.09972 21.70205 c -2.29999,6.299994 -6.90229,11.699947 -14.00229,14.399945 l 10.70123,31.899405 h -23.20006 l -6.70019,-31.899405 h -0.2996 l -5.19945,31.899405 h -21.10012 z m -34.00207,0 h 21.39973 l -7.49821,46.201298 H 113.00073 Z M 246.60128,18.60049 h 64.09841 l -2.50031,15.399525 h -87.09965 c 4,-8.199992 12.10156,-15.399525 25.50155,-15.399525 z m -87.10237,0 h 20.6017 c 14.99998,0 26.19991,3.499536 28.09991,15.399525 h -51.1992 z m 158.20056,-0.100775 h 1.10036 l 1.39995,4.40142 h 0.10078 l 1.39996,-4.40142 h 1.10035 v 5.499052 h -0.60193 v -4.799074 l -1.69955,4.799074 h -0.49843 l -1.60151,-4.799074 v 4.799074 h -0.69998 z m -4.19987,0 h 3.30107 v 0.599203 h -1.30191 v 4.899849 h -0.69998 V 19.098918 H 313.4996 Z M 33.451045,8.0626826 c 10.39999,-0.0375 22.449194,2.3367674 32.749184,6.5367634 -16.799983,-1.499999 -24.10069,0.09939 -28.200686,7.299386 -7.799992,13.799986 1.599329,34.300263 22.399309,55.200242 l 9.500096,-58.397808 h 42.701402 l -2.50031,15.399525 -20.201321,0.09805 -2.298761,14.601495 20.201322,-0.100775 -2.90069,17.099083 H 84.699269 l -5.098675,27.702258 c 3.699996,2.799997 7.698861,5.697795 11.798857,8.497788 28.999969,19.69998 60.601039,30.50257 80.601019,30.20257 7.09999,-0.1 21.19861,-3.60259 19.49862,-17.20258 3.09999,6.1 1.60157,13.10066 -0.49843,16.60066 -1,1.4 -2.9014,3.5018 -5.1014,4.80179 C 167.79928,146.80112 125.09988,138.39887 75.999927,107.9989 20.899982,73.898933 -0.90037846,33.499385 10.59961,15.999403 14.299606,10.549408 23.051055,8.1001826 33.451045,8.0626826 Z"
   mask="none" /><polygon
   class="st2"
   points="125.5,18.5 146.7,18.5 144.2,33.9 122.9,33.9 "
   id="polygon1028"
   style="clip-rule:evenodd;fill:#ff8000;fill-rule:evenodd" /><path
   id="polygon1030"
   style="fill:#ff8000"
   class="st3"
   d="m 168.6994,97.599998 c -0.4,0 -0.80035,0.100377 -1.10035,0.400376 -0.2,0.3 -0.40038,0.700356 -0.40038,1.100355 0,0.4 0.002,0.598806 0.30232,0.898805 0.2,0.199996 0.49881,0.299606 0.89881,0.299606 0.4,0 0.80035,-0.10038 1.10035,-0.400381 0.2,-0.299999 0.40038,-0.697632 0.40038,-1.097631 0,-0.3 4e-4,-0.500754 -0.2996,-0.800754 -0.2,-0.199999 -0.50153,-0.300377 -0.90153,-0.400376 z m 73.10008,0 c -0.4,0 -0.80036,0.100377 -1.10036,0.400376 -0.2,0.3 -0.40037,0.700356 -0.40037,1.100355 0,0.4 0.002,0.598806 0.30232,0.898805 0.2,0.199996 0.49881,0.299606 0.89881,0.299606 0.4,0 0.80035,-0.10038 1.10035,-0.400381 0.2,-0.299999 0.40038,-0.697632 0.40038,-1.097631 0,-0.3 4e-4,-0.500754 -0.2996,-0.800754 -0.3,-0.199999 -0.50153,-0.300377 -0.90153,-0.400376 z m 69.30058,0.898805 -2.39953,0.302325 -1.69956,12.300012 h 2.19799 l 0.69997,-5.00063 c 0.8,-1.4 1.40072,-2.20071 2.20072,-2.20071 0.39999,0 0.5992,0.30076 0.5992,0.80076 v 0.40037 l -0.79803,5.89943 h 2.29876 l 0.90153,-6.2998 v -0.59921 c 0,-0.7 -0.20115,-1.3015 -0.50115,-1.6015 -0.3,-0.4 -0.79996,-0.59921 -1.39996,-0.59921 -0.6,0 -1.09878,0.19843 -1.59878,0.49843 -0.5,0.3 -1.00191,0.80191 -1.30191,1.30191 z m -111.29928,0.501151 c -1.1,0 -1.80032,0.201153 -2.50032,0.501152 -0.6,0.4 -1.09995,0.899954 -1.39995,1.399954 -0.3,0.6 -0.50115,1.09956 -0.50115,1.69956 0,0.7 0.30075,1.39839 0.80075,1.89839 0.4,0.5 1.29876,1.0019 2.29876,1.3019 0.6,0.3 1.09996,0.49803 1.39996,0.79803 0.2,0.2 0.40037,0.60231 0.40037,1.00231 0,0.49999 -0.1992,0.99918 -0.5992,1.29918 -0.4,0.2 -0.89878,0.40037 -1.59878,0.40037 -1,0 -1.80109,-0.40113 -2.60109,-1.20113 l -1.39996,1.39996 c 0.4,0.5 0.99956,0.90113 1.69956,1.20113 0.7,0.2 1.49954,0.40038 2.39954,0.40038 1.1,0 1.99991,-0.20193 2.79991,-0.60193 0.7,-0.4 1.20073,-0.89801 1.50073,-1.49801 0.3,-0.6 0.50116,-1.30111 0.50116,-1.90111 0,-0.8 -0.30076,-1.49916 -0.80076,-1.99916 -0.5,-0.4 -1.30071,-0.90113 -2.20071,-1.20113 -0.5,-0.2 -0.8984,-0.30115 -1.1984,-0.50115 -0.3,-0.1 -0.50193,-0.19765 -0.60193,-0.39765 -0.1,-0.2 -0.19883,-0.30193 -0.19883,-0.60193 0,-0.4 0.19843,-0.69958 0.49843,-0.99958 0.4,-0.2 0.79996,-0.40038 1.39996,-0.40038 0.5,0 1.0019,0.0996 1.3019,0.29961 0.4,0.2 0.80036,0.50075 1.10036,0.80075 l 1.39995,-1.39996 c -0.99999,-0.999996 -2.10027,-1.499556 -3.90026,-1.699556 z m -87.09965,0.501152 -1.60151,11.600034 h 2.39954 l 1.60151,-11.600034 z m 151.29883,0 -0.2996,1.898384 h 3.09952 l -1.39996,9.70165 h 2.39954 l 1.3019,-9.70165 h 2.89797 l 0.50115,-1.898384 z m -16.20028,0.498428 -1.89838,0.299606 -0.50115,1.9011 h -1.39996 l -0.2996,1.69956 h 1.29918 l -0.5992,4.40142 c -0.1,0.3 -0.10078,0.39998 -0.10078,0.69998 0,0.8 0.19921,1.39761 0.5992,1.79761 0.4,0.3 1.00034,0.60193 1.80034,0.60193 0.4,0 0.80113,-0.10155 1.20113,-0.20155 0.3,-0.2 0.80035,-0.29843 1.10035,-0.49843 l -0.60192,-1.50073 c -0.4,0.2 -0.79763,0.2996 -1.09763,0.2996 -0.2,0 -0.40116,-0.0988 -0.50116,-0.19883 -0.1,-0.2 -0.19882,-0.30192 -0.19882,-0.60192 v -0.39766 l 0.5992,-4.40142 h 1.80033 l 0.49843,-1.69956 h -1.99916 z m 56.70098,0 -1.90111,0.299606 -0.49843,1.9011 h -1.39996 l -0.30232,1.69956 h 1.3019 l -0.60192,4.40142 c -0.1,0.3 -0.0981,0.39998 -0.0981,0.69998 0,0.8 0.1992,1.39761 0.5992,1.79761 0.4,0.3 1.00033,0.60193 1.80033,0.60193 0.4,0 0.79841,-0.10155 1.19841,-0.20155 0.3,-0.2 0.80035,-0.29843 1.10035,-0.49843 l -0.5992,-1.50073 c -0.4,0.2 -0.80035,0.2996 -1.10035,0.2996 -0.2,0 -0.39843,-0.0988 -0.49843,-0.19883 -0.1,-0.2 -0.20155,-0.30192 -0.20155,-0.60192 v -0.39766 l 0.69998,-4.40142 h 1.69955 l 0.50116,-1.69956 h -1.99916 z m -118.80023,1.800336 c -1.2,0 -2.10069,0.20075 -2.90069,0.80075 -0.7,0.6 -1.29878,1.40071 -1.59878,2.20071 -0.3,0.9 -0.50115,1.79914 -0.50115,2.69914 0,1.1 0.30075,1.90031 0.80075,2.50031 0.5,0.6 1.19994,0.89881 2.09994,0.89881 0.5,0 0.89918,4e-4 1.29918,-0.2996 0.4,-0.1 0.80035,-0.50076 1.10035,-0.80076 l -0.19882,0.90153 c -0.1,0.9 -0.40076,1.39956 -0.80076,1.69956 -0.4,0.2 -0.90073,0.40038 -1.50073,0.40038 -0.8,0 -1.59954,-0.19998 -2.39953,-0.69998 l -0.80076,1.59878 c 0.5,0.3 1.00151,0.49998 1.60151,0.69998 0.6,0.2 1.19956,0.2996 1.69956,0.2996 1.2,0 2.19874,-0.29958 2.99874,-0.99958 0.7,-0.7 1.09995,-1.70029 1.39995,-3.20029 l 1.10036,-7.59899 c -1.1,-0.6 -2.19912,-1.00035 -3.39912,-1.10035 z m 100.60079,0 c -1.2,0 -2.10069,0.20075 -2.90069,0.80075 -0.7,0.6 -1.30151,1.40071 -1.60151,2.20071 -0.3,0.9 -0.49842,1.79914 -0.49842,2.69914 0,1.1 0.30075,1.90031 0.80075,2.50031 0.5,0.6 1.19994,0.89881 2.09993,0.89881 0.5,0 0.89919,4e-4 1.29919,-0.2996 0.4,-0.1 0.80035,-0.50076 1.10035,-0.80076 l -0.20155,0.90153 c -0.1,0.9 -0.39803,1.39956 -0.79803,1.69956 -0.4,0.2 -0.90073,0.40038 -1.50073,0.40038 -0.8,0 -1.59954,-0.19998 -2.39954,-0.69998 l -0.80075,1.59878 c 0.5,0.3 0.99878,0.49998 1.59878,0.69998 0.6,0.2 1.20228,0.2996 1.70228,0.2996 1.2,0 2.19875,-0.29958 2.99874,-0.99958 0.7,-0.7 1.19996,-1.70029 1.39996,-3.20029 l 1.10036,-7.59899 c -1.1,-0.6 -2.29912,-1.00035 -3.39912,-1.10035 z m -68.10218,0.10077 c -1.1,0 -1.89914,0.19803 -2.69914,0.79803 -0.8,0.6 -1.29878,1.40071 -1.59878,2.20071 -0.3,0.8 -0.50115,1.70032 -0.50115,2.50032 0,1.19999 0.1988,2.09991 0.8988,2.79991 0.7,0.7 1.60187,0.99958 2.70186,0.99958 1.1,0 2.09875,-0.29958 2.99874,-0.99958 l -0.79803,-1.50073 c -0.3,0.2 -0.60152,0.40115 -0.90152,0.50115 -0.2,0.1 -0.50076,0.19883 -0.80076,0.19883 -0.5,0 -0.80035,-0.0977 -1.10035,-0.39766 -0.2,-0.3 -0.2996,-0.79996 -0.2996,-1.39995 0,-1 0.30192,-1.90187 0.60192,-2.70187 0.5,-0.8 1.09839,-1.1984 1.89839,-1.1984 0.3,0 0.50075,0.0988 0.80075,0.19882 0.3,0.1 0.50075,0.20116 0.80075,0.50116 l 1.19841,-1.39996 c -0.7,-0.7 -1.70029,-1.10036 -3.20029,-1.10036 z m -91.01081,0.0763 c -0.0621,0.003 -0.12543,0.009 -0.18793,0.0218 -0.5,0 -1.00073,0.10038 -1.50073,0.40038 -0.5,0.4 -0.99919,0.80191 -1.29919,1.30191 -0.1,-0.6 -0.39997,-1.00191 -0.69997,-1.30191 -0.4,-0.2 -0.79919,-0.40038 -1.29919,-0.40038 -0.49999,0 -1.00073,0.20116 -1.50073,0.50116 -0.5,0.3 -0.99918,0.69918 -1.29918,1.29918 l 0.0981,-1.49801 h -1.99916 l -1.29918,8.80012 h 2.39954 l 0.69998,-5.00063 c 0.2,-0.7 0.5988,-1.2015 0.8988,-1.6015 0.3,-0.4 0.60153,-0.59921 0.90153,-0.59921 0.2,0 0.39843,0.10155 0.49843,0.20155 0.1,0.1 0.20155,0.29921 0.20155,0.59921 v 0.40037 l -0.80076,5.89943 h 2.09994 l 0.69998,-5.1014 c 0.7,-1.4 1.30111,-2.09993 1.90111,-2.09993 0.2,0 0.39842,0.10155 0.49842,0.20155 0.1,0.1 0.20156,0.2992 0.20156,0.5992 v 0.50115 l -0.80076,5.89943 h 2.29876 l 0.90153,-6.2998 v -0.59921 c 0,-0.7 -0.20115,-1.2015 -0.50115,-1.6015 -0.2625,-0.35 -0.67648,-0.54619 -1.11125,-0.52294 z m 49.73387,0 c -0.10312,0.003 -0.20889,0.009 -0.32139,0.0218 -0.5,0 -1.0015,0.10116 -1.6015,0.50116 -0.6,0.4 -0.99996,0.79995 -1.39996,1.39995 l 0.10077,-1.59878 h -1.99916 l -1.3019,8.80012 h 2.40226 l 0.69998,-5.00063 c 0.8,-1.4 1.49799,-2.20071 2.19798,-2.20071 0.2,0 0.40116,0.10155 0.50116,0.20155 0.1,0.1 0.19882,0.29921 0.19882,0.59921 v 0.40037 l -0.79803,5.89943 h 2.39954 l 0.79803,-6.2998 c 0.1,-0.3 0.10078,-0.39921 0.10078,-0.59921 0,-0.7 -0.19843,-1.3015 -0.49843,-1.6015 -0.2625,-0.35 -0.75707,-0.54619 -1.47895,-0.52294 z m -40.19292,0.008 c -0.10625,-0.003 -0.21706,0.001 -0.32956,0.0136 -0.9,0 -1.79836,0.50191 -2.59836,1.30191 v -0.99958 h -2.00189 l -1.80033,12.49884 2.40226,-0.29961 0.49843,-3.39911 c 0.5,0.2 1.0015,0.2996 1.6015,0.2996 1.1,0 1.99914,-0.30153 2.69914,-0.90153 0.7,-0.6 1.20073,-1.39876 1.50073,-2.29876 0.3,-0.9 0.49843,-1.89992 0.49843,-2.79991 0,-1.1 -0.19998,-1.90032 -0.69998,-2.50032 -0.4375,-0.525 -1.02662,-0.89737 -1.77037,-0.91514 z m 9.93316,0 c -0.12949,0.006 -0.27552,0.0394 -0.46302,0.11439 -0.5,0 -0.99996,0.20115 -1.39996,0.50115 -0.4,0.3 -0.80036,0.79996 -1.10036,1.39996 l 0.10078,-1.69956 h -1.99916 l -1.30191,8.80012 h 2.40227 l 0.5992,-4.19987 c 0.3,-0.8 0.59958,-1.50111 0.99958,-1.90111 0.4,-0.4 0.79918,-0.69998 1.29918,-0.69998 0.3,0 0.50075,7.8e-4 0.80075,0.10078 l 0.69998,-2.30149 c -0.25,-0.0625 -0.42151,-0.12514 -0.63733,-0.11439 z m 6.04106,0 c -0.13106,-0.003 -0.2656,0.001 -0.4031,0.0136 -1.1,0 -1.99992,0.20076 -2.79992,0.80076 -0.7,0.5 -1.20073,1.29993 -1.50073,2.09993 -0.3,0.8 -0.49843,1.80109 -0.49843,2.60109 0,1.1 0.29881,1.99914 0.89881,2.69914 0.6,0.7 1.50109,0.99958 2.60108,0.99958 1.1,0 1.99992,-0.19803 2.79992,-0.79803 0.7,-0.6 1.19801,-1.40071 1.49801,-2.20071 0.3,-0.8 0.50115,-1.80109 0.50115,-2.60109 0,-1.2 -0.30153,-1.99914 -0.90153,-2.69914 -0.525,-0.525 -1.27788,-0.89737 -2.19526,-0.91514 z m 85.1604,0 c -0.1248,0.006 -0.25247,0.0394 -0.36497,0.11439 -0.5,0 -0.99995,0.20115 -1.39995,0.50115 -0.4,0.3 -0.79763,0.79996 -1.09763,1.39996 l -0.10078,-1.69956 h -1.99916 l -1.3019,8.80012 h 2.39953 l 0.60193,-4.19987 c 0.3,-0.8 0.59958,-1.50111 0.99958,-1.90111 0.4,-0.4 0.79918,-0.69998 1.29918,-0.69998 0.3,0 0.50075,7.8e-4 0.80075,0.10078 l 0.69998,-2.30149 c -0.125,-0.0625 -0.32855,-0.12514 -0.53656,-0.11439 z m 38.64045,0 c -0.13106,-0.003 -0.26561,0.001 -0.40311,0.0136 -1.09999,0 -1.99991,0.20076 -2.79991,0.80076 -0.7,0.5 -1.20073,1.29993 -1.50073,2.09993 -0.3,0.8 -0.50115,1.80109 -0.50115,2.60109 0,1.1 0.30153,1.99914 0.90153,2.69914 0.6,0.7 1.49836,0.99958 2.59836,0.99958 1.1,0 1.99991,-0.19803 2.79991,-0.79803 0.7,-0.6 1.20074,-1.40071 1.50074,-2.20071 0.29999,-0.8 0.50115,-1.80109 0.50115,-2.60109 0,-1.2 -0.30153,-1.99914 -0.90153,-2.69914 -0.525,-0.525 -1.27788,-0.89737 -2.19526,-0.91514 z m 55.58427,0 c -0.14179,0.006 -0.30003,0.0394 -0.48753,0.11439 -0.5,0 -0.99996,0.20115 -1.39996,0.50115 -0.4,0.3 -0.80035,0.79996 -1.10035,1.39996 l 0.0981,-1.69956 h -1.99916 l -1.29918,8.80012 h 2.39953 l 0.59921,-4.19987 c 0.3,-0.8 0.59958,-1.50111 0.99958,-1.90111 0.4,-0.4 0.8019,-0.69998 1.3019,-0.69998 0.3,0 0.49803,7.8e-4 0.79803,0.10078 l 0.7027,-2.30149 c -0.1875,-0.0625 -0.37649,-0.12514 -0.61282,-0.11439 z m -122.6896,0.0136 c -1.1,0 -1.99991,0.20076 -2.79991,0.80076 -0.8,0.6 -1.29878,1.40071 -1.59878,2.20071 -0.3,0.8 -0.50116,1.80109 -0.50116,2.60109 0,1.19999 0.20153,1.99913 0.90153,2.69913 0.7,0.7 1.49992,0.99958 2.79992,0.99958 1.3,0 2.39989,-0.40113 3.49989,-1.20113 l -0.80076,-1.39995 c -0.39999,0.3 -0.8984,0.50192 -1.1984,0.60192 -0.3,0.1 -0.80036,0.19883 -1.10036,0.19883 -1,0 -1.5015,-0.59956 -1.6015,-1.69956 1.69999,-0.2 3.10182,-0.49958 4.10182,-0.99958 0.99999,-0.6 1.49995,-1.29954 1.39995,-2.39953 0,-0.7 -0.30075,-1.30229 -0.80075,-1.70229 -0.5,-0.4 -1.30149,-0.69998 -2.30149,-0.69998 z m 86.50045,0 c -1.1,0 -1.99992,0.20076 -2.79992,0.80076 -0.8,0.6 -1.29878,1.40071 -1.59878,2.20071 -0.3,0.8 -0.50115,1.80109 -0.50115,2.60109 0,1.19999 0.20153,1.99913 0.90153,2.69913 0.7,0.7 1.59991,0.99958 2.79991,0.99958 1.3,0 2.39989,-0.40113 3.49989,-1.20113 l -0.80075,-1.39995 c -0.4,0.3 -0.90113,0.40192 -1.20113,0.60192 -0.3,0.1 -0.79763,0.19883 -1.09763,0.19883 -1,0 -1.50151,-0.59956 -1.60151,-1.69956 1.7,-0.2 3.0991,-0.49958 4.0991,-0.99958 1.09999,-0.6 1.59995,-1.29954 1.39995,-2.39953 0,-0.7 -0.29803,-1.30229 -0.79803,-1.70229 -0.5,-0.4 -1.30148,-0.69998 -2.30148,-0.69998 z m 25.70037,0 c -1.1,0 -1.99991,0.20076 -2.79991,0.80076 -0.8,0.6 -1.29879,1.40071 -1.59879,2.20071 -0.3,0.8 -0.50115,1.80109 -0.50115,2.60109 0,1.19999 0.19881,1.99913 0.89881,2.69913 0.7,0.7 1.60264,0.99958 2.80263,0.99958 1.3,0 2.3999,-0.40113 3.4999,-1.20113 l -0.80076,-1.39995 c -0.4,0.3 -0.90113,0.50192 -1.20113,0.60192 -0.3,0.1 -0.80035,0.19883 -1.10035,0.19883 -1,0 -1.49879,-0.59956 -1.59879,-1.69956 1.7,-0.2 3.0991,-0.49958 4.0991,-0.99958 1.1,-0.6 1.69996,-1.29954 1.39996,-2.39953 0,-0.7 -0.29803,-1.30229 -0.79803,-1.70229 -0.5,-0.4 -1.30149,-0.69998 -2.30149,-0.69998 z m -93.29868,0.10078 -0.80075,5.59983 c -0.3,0.5 -0.60153,0.90113 -0.90153,1.20113 -0.3,0.2 -0.69958,0.40037 -0.99958,0.40037 -0.2,0 -0.39843,-0.10155 -0.49843,-0.20155 -0.1,-0.1 -0.20155,-0.2992 -0.20155,-0.5992 v -0.40038 l 0.80076,-5.89943 h -2.39954 l -0.80075,6.29981 c -0.1,0.2 -0.10078,0.3992 -0.10078,0.5992 0,0.7 0.20115,1.20151 0.50115,1.60151 0.3,0.4 0.89879,0.5992 1.59879,0.5992 1,0 1.99991,-0.49878 2.79991,-1.59878 l -0.0981,1.39996 h 1.99916 l 1.50073,-9.00167 z m 22.09971,0 1.39996,8.80012 h 0.79803 c -0.4,0.6 -0.79841,1.09995 -1.19841,1.39995 -0.4,0.3 -1.10111,0.49921 -1.90111,0.59921 l 0.10078,1.70228 c 1.3,-0.1 2.40029,-0.4023 3.20029,-1.0023 0.8,-0.6 1.49916,-1.39759 1.99916,-2.49759 l 4.30064,-9.00167 h -2.50031 l -2.90069,7.29939 -0.79803,-7.29939 z m -93.3014,0.10077 1.60151,8.9009 h 2.79991 l 3.99832,-8.9009 h -2.50031 l -2.69914,6.99979 -0.80075,-6.99979 z m 9.90047,0.10078 -1.29918,8.80012 h 2.39954 l 1.29918,-8.80012 z m 72.99931,0 -1.29919,8.80012 h 2.39954 l 1.29918,-8.80012 z m -30.79905,1.19841 c 0.4,0 0.60075,0.0996 0.80075,0.2996 0.2,0.2 0.2996,0.30193 0.2996,0.60193 0,0.49999 -0.30075,0.99918 -0.80075,1.29918 -0.5,0.3 -1.29837,0.50115 -2.59837,0.50115 0.2,-0.7 0.49803,-1.40111 0.79803,-1.90111 0.4,-0.5 0.90074,-0.80075 1.50074,-0.80075 z m 86.50044,0 c 0.4,0 0.60075,0.0996 0.80075,0.2996 0.2,0.2 0.29961,0.30193 0.29961,0.60193 0,0.49999 -0.30076,0.99918 -0.80076,1.29918 -0.5,0.3 -1.20109,0.50115 -2.60109,0.50115 0.2,-0.7 0.50076,-1.40111 0.80076,-1.90111 0.4,-0.5 0.90073,-0.80075 1.50073,-0.80075 z m 25.70037,0 c 0.4,0 0.59803,0.0996 0.79803,0.2996 0.2,0.2 0.30233,0.30193 0.30233,0.60193 0,0.49999 -0.30075,0.99918 -0.80075,1.29918 -0.5,0.3 -1.20109,0.50115 -2.60109,0.50115 0.2,-0.7 0.50075,-1.40111 0.80075,-1.90111 0.4,-0.5 0.90074,-0.80075 1.50073,-0.80075 z m -136.05455,0.18248 c 0.0529,5.9e-4 0.10252,0.007 0.15252,0.0191 0.3,0 0.80036,0.0988 1.10036,0.19882 l -0.59921,4.0991 c -0.6,1 -1.30111,1.39996 -1.9011,1.39996 -0.3,0 -0.59803,-0.0977 -0.79803,-0.39766 -0.2,-0.3 -0.29961,-0.7019 -0.29961,-1.3019 0,-0.7 0.0996,-1.29839 0.29961,-1.89839 0.1,-0.6 0.39803,-1.10073 0.79803,-1.50073 0.4375,-0.35 0.87692,-0.62237 1.24743,-0.61827 z m 100.53814,0 c 0.0691,5.9e-4 0.14017,0.007 0.21517,0.0191 0.3,0 0.80035,0.0988 1.10035,0.19882 l -0.5992,4.0991 c -0.6,1 -1.30111,1.39996 -1.90111,1.39996 -0.3,0 -0.60075,-0.0977 -0.80075,-0.39766 -0.2,-0.3 -0.2996,-0.7019 -0.2996,-1.3019 0,-0.7 0.0996,-1.29839 0.2996,-1.89839 0.1,-0.6 0.40075,-1.10073 0.80075,-1.50073 0.35,-0.35 0.70081,-0.62237 1.18479,-0.61827 z m -133.78575,0.0191 c 0.4,0 0.7023,0.10037 1.0023,0.40037 0.2,0.3 0.2996,0.79996 0.2996,1.39996 0,0.6 -0.002,1.19761 -0.20155,1.79761 -0.1,0.7 -0.39998,1.20151 -0.69998,1.60151 -0.4,0.4 -0.79995,0.69998 -1.39995,0.69998 -0.4,0 -0.69958,-0.10038 -0.99958,-0.40038 -0.2,-0.3 -0.29961,-0.79996 -0.29961,-1.39996 0,-1 0.20116,-1.99991 0.50116,-2.79991 0.4,-0.9 0.89761,-1.29918 1.79761,-1.29918 z m 123.80084,0 c 0.4,0 0.69959,0.10037 0.99958,0.40037 0.2,0.3 0.29961,0.79996 0.29961,1.39996 0,0.6 10e-4,1.19761 -0.19883,1.79761 -0.1,0.7 -0.29998,1.20151 -0.69998,1.60151 -0.4,0.4 -0.79996,0.69998 -1.39996,0.69998 -0.39999,0 -0.69958,-0.10038 -0.99958,-0.40038 -0.2,-0.3 -0.2996,-0.79996 -0.2996,-1.39996 0,-1 0.19843,-1.99991 0.49843,-2.79991 0.4,-0.9 1.00034,-1.29918 1.80033,-1.29918 z m -140.49138,0.0817 c 0.0941,-2e-4 0.19143,0.004 0.29143,0.0163 0.8,0 1.20113,0.60228 1.20113,1.70228 0,0.6 -0.0996,1.19839 -0.2996,1.89839 -0.2,0.69999 -0.50075,1.2015 -0.80075,1.6015 -0.4,0.4 -0.79996,0.69998 -1.39996,0.69998 -0.5,0 -0.89918,-0.10232 -1.29918,-0.30232 l 0.5992,-4.59753 c 0.525,-0.7 1.04875,-1.01728 1.70773,-1.01864 z" />
</g></svg>
